<svg xmlns="http://www.w3.org/2000/svg" viewBox="0 0 320 180" width="320" height="180">
<rect width="320" height="180" fill="#000000"/>
<g fill="#a8e0ff" fill-opacity="0.08" stroke="#a8e0ff" stroke-opacity="0.55">
<ellipse cx="48" cy="150" rx="15" ry="14" stroke-width="2"/>
<ellipse cx="120" cy="96" rx="9" ry="10" stroke-width="1.3"/>
<ellipse cx="88" cy="40" rx="13" ry="12" stroke-width="1.8"/>
<ellipse cx="176" cy="134" rx="18" ry="17" stroke-width="2.4"/>
<ellipse cx="220" cy="62" rx="7" ry="7" stroke-width="1"/>
<ellipse cx="262" cy="112" rx="12" ry="13" stroke-width="1.7"/>
<ellipse cx="292" cy="28" rx="9" ry="8" stroke-width="1.3"/>
<ellipse cx="150" cy="24" rx="6" ry="6" stroke-width="1"/>
<ellipse cx="240" cy="160" rx="10" ry="9" stroke-width="1.4"/>
<ellipse cx="24" cy="76" rx="8" ry="8" stroke-width="1.1"/>
</g>
<g fill="#ffffff" fill-opacity="0.5">
<circle cx="43" cy="144" r="3.3"/><circle cx="117" cy="92" r="2"/><circle cx="83" cy="35" r="2.9"/><circle cx="170" cy="127" r="4"/><circle cx="218" cy="59" r="1.5"/><circle cx="258" cy="107" r="2.6"/><circle cx="289" cy="25" r="2"/><circle cx="148" cy="22" r="1.3"/><circle cx="236" cy="156" r="2.2"/><circle cx="21" cy="73" r="1.8"/>
</g>
</svg>
