<svg xmlns="http://www.w3.org/2000/svg" viewBox="0 0 320 180" width="320" height="180">
<rect x="0" y="0" width="20" height="20" fill="#822020"/>
<rect x="20" y="0" width="20" height="20" fill="#d17b47"/>
<rect x="40" y="0" width="20" height="20" fill="#826a20"/>
<rect x="60" y="0" width="20" height="20" fill="#bfd147"/>
<rect x="80" y="0" width="20" height="20" fill="#518220"/>
<rect x="100" y="0" width="20" height="20" fill="#58d147"/>
<rect x="120" y="0" width="20" height="20" fill="#208239"/>
<rect x="140" y="0" width="20" height="20" fill="#47d19d"/>
<rect x="160" y="0" width="20" height="20" fill="#208282"/>
<rect x="180" y="0" width="20" height="20" fill="#479dd1"/>
<rect x="200" y="0" width="20" height="20" fill="#203982"/>
<rect x="220" y="0" width="20" height="20" fill="#5847d1"/>
<rect x="240" y="0" width="20" height="20" fill="#512082"/>
<rect x="260" y="0" width="20" height="20" fill="#bf47d1"/>
<rect x="280" y="0" width="20" height="20" fill="#82206a"/>
<rect x="300" y="0" width="20" height="20" fill="#d1477b"/>
<rect x="0" y="20" width="20" height="20" fill="#d14747"/>
<rect x="20" y="20" width="20" height="20" fill="#824520"/>
<rect x="40" y="20" width="20" height="20" fill="#d1ae47"/>
<rect x="60" y="20" width="20" height="20" fill="#768220"/>
<rect x="80" y="20" width="20" height="20" fill="#8cd147"/>
<rect x="100" y="20" width="20" height="20" fill="#2c8220"/>
<rect x="120" y="20" width="20" height="20" fill="#47d169"/>
<rect x="140" y="20" width="20" height="20" fill="#20825d"/>
<rect x="160" y="20" width="20" height="20" fill="#47d1d1"/>
<rect x="180" y="20" width="20" height="20" fill="#205d82"/>
<rect x="200" y="20" width="20" height="20" fill="#4769d1"/>
<rect x="220" y="20" width="20" height="20" fill="#2c2082"/>
<rect x="240" y="20" width="20" height="20" fill="#8c47d1"/>
<rect x="260" y="20" width="20" height="20" fill="#762082"/>
<rect x="280" y="20" width="20" height="20" fill="#d147ae"/>
<rect x="300" y="20" width="20" height="20" fill="#822045"/>
<rect x="0" y="40" width="20" height="20" fill="#822020"/>
<rect x="20" y="40" width="20" height="20" fill="#d17b47"/>
<rect x="40" y="40" width="20" height="20" fill="#826a20"/>
<rect x="60" y="40" width="20" height="20" fill="#bfd147"/>
<rect x="80" y="40" width="20" height="20" fill="#518220"/>
<rect x="100" y="40" width="20" height="20" fill="#58d147"/>
<rect x="120" y="40" width="20" height="20" fill="#208239"/>
<rect x="140" y="40" width="20" height="20" fill="#47d19d"/>
<rect x="160" y="40" width="20" height="20" fill="#208282"/>
<rect x="180" y="40" width="20" height="20" fill="#479dd1"/>
<rect x="200" y="40" width="20" height="20" fill="#203982"/>
<rect x="220" y="40" width="20" height="20" fill="#5847d1"/>
<rect x="240" y="40" width="20" height="20" fill="#512082"/>
<rect x="260" y="40" width="20" height="20" fill="#bf47d1"/>
<rect x="280" y="40" width="20" height="20" fill="#82206a"/>
<rect x="300" y="40" width="20" height="20" fill="#d1477b"/>
<rect x="0" y="60" width="20" height="20" fill="#d14747"/>
<rect x="20" y="60" width="20" height="20" fill="#824520"/>
<rect x="40" y="60" width="20" height="20" fill="#d1ae47"/>
<rect x="60" y="60" width="20" height="20" fill="#768220"/>
<rect x="80" y="60" width="20" height="20" fill="#8cd147"/>
<rect x="100" y="60" width="20" height="20" fill="#2c8220"/>
<rect x="120" y="60" width="20" height="20" fill="#47d169"/>
<rect x="140" y="60" width="20" height="20" fill="#20825d"/>
<rect x="160" y="60" width="20" height="20" fill="#47d1d1"/>
<rect x="180" y="60" width="20" height="20" fill="#205d82"/>
<rect x="200" y="60" width="20" height="20" fill="#4769d1"/>
<rect x="220" y="60" width="20" height="20" fill="#2c2082"/>
<rect x="240" y="60" width="20" height="20" fill="#8c47d1"/>
<rect x="260" y="60" width="20" height="20" fill="#762082"/>
<rect x="280" y="60" width="20" height="20" fill="#d147ae"/>
<rect x="300" y="60" width="20" height="20" fill="#822045"/>
<rect x="0" y="80" width="20" height="20" fill="#822020"/>
<rect x="20" y="80" width="20" height="20" fill="#d17b47"/>
<rect x="40" y="80" width="20" height="20" fill="#826a20"/>
<rect x="60" y="80" width="20" height="20" fill="#bfd147"/>
<rect x="80" y="80" width="20" height="20" fill="#518220"/>
<rect x="100" y="80" width="20" height="20" fill="#58d147"/>
<rect x="120" y="80" width="20" height="20" fill="#208239"/>
<rect x="140" y="80" width="20" height="20" fill="#47d19d"/>
<rect x="160" y="80" width="20" height="20" fill="#208282"/>
<rect x="180" y="80" width="20" height="20" fill="#479dd1"/>
<rect x="200" y="80" width="20" height="20" fill="#203982"/>
<rect x="220" y="80" width="20" height="20" fill="#5847d1"/>
<rect x="240" y="80" width="20" height="20" fill="#512082"/>
<rect x="260" y="80" width="20" height="20" fill="#bf47d1"/>
<rect x="280" y="80" width="20" height="20" fill="#82206a"/>
<rect x="300" y="80" width="20" height="20" fill="#d1477b"/>
<rect x="0" y="100" width="20" height="20" fill="#d14747"/>
<rect x="20" y="100" width="20" height="20" fill="#824520"/>
<rect x="40" y="100" width="20" height="20" fill="#d1ae47"/>
<rect x="60" y="100" width="20" height="20" fill="#768220"/>
<rect x="80" y="100" width="20" height="20" fill="#8cd147"/>
<rect x="100" y="100" width="20" height="20" fill="#2c8220"/>
<rect x="120" y="100" width="20" height="20" fill="#47d169"/>
<rect x="140" y="100" width="20" height="20" fill="#20825d"/>
<rect x="160" y="100" width="20" height="20" fill="#47d1d1"/>
<rect x="180" y="100" width="20" height="20" fill="#205d82"/>
<rect x="200" y="100" width="20" height="20" fill="#4769d1"/>
<rect x="220" y="100" width="20" height="20" fill="#2c2082"/>
<rect x="240" y="100" width="20" height="20" fill="#8c47d1"/>
<rect x="260" y="100" width="20" height="20" fill="#762082"/>
<rect x="280" y="100" width="20" height="20" fill="#d147ae"/>
<rect x="300" y="100" width="20" height="20" fill="#822045"/>
<rect x="0" y="120" width="20" height="20" fill="#822020"/>
<rect x="20" y="120" width="20" height="20" fill="#d17b47"/>
<rect x="40" y="120" width="20" height="20" fill="#826a20"/>
<rect x="60" y="120" width="20" height="20" fill="#bfd147"/>
<rect x="80" y="120" width="20" height="20" fill="#518220"/>
<rect x="100" y="120" width="20" height="20" fill="#58d147"/>
<rect x="120" y="120" width="20" height="20" fill="#208239"/>
<rect x="140" y="120" width="20" height="20" fill="#47d19d"/>
<rect x="160" y="120" width="20" height="20" fill="#208282"/>
<rect x="180" y="120" width="20" height="20" fill="#479dd1"/>
<rect x="200" y="120" width="20" height="20" fill="#203982"/>
<rect x="220" y="120" width="20" height="20" fill="#5847d1"/>
<rect x="240" y="120" width="20" height="20" fill="#512082"/>
<rect x="260" y="120" width="20" height="20" fill="#bf47d1"/>
<rect x="280" y="120" width="20" height="20" fill="#82206a"/>
<rect x="300" y="120" width="20" height="20" fill="#d1477b"/>
<rect x="0" y="140" width="20" height="20" fill="#d14747"/>
<rect x="20" y="140" width="20" height="20" fill="#824520"/>
<rect x="40" y="140" width="20" height="20" fill="#d1ae47"/>
<rect x="60" y="140" width="20" height="20" fill="#768220"/>
<rect x="80" y="140" width="20" height="20" fill="#8cd147"/>
<rect x="100" y="140" width="20" height="20" fill="#2c8220"/>
<rect x="120" y="140" width="20" height="20" fill="#47d169"/>
<rect x="140" y="140" width="20" height="20" fill="#20825d"/>
<rect x="160" y="140" width="20" height="20" fill="#47d1d1"/>
<rect x="180" y="140" width="20" height="20" fill="#205d82"/>
<rect x="200" y="140" width="20" height="20" fill="#4769d1"/>
<rect x="220" y="140" width="20" height="20" fill="#2c2082"/>
<rect x="240" y="140" width="20" height="20" fill="#8c47d1"/>
<rect x="260" y="140" width="20" height="20" fill="#762082"/>
<rect x="280" y="140" width="20" height="20" fill="#d147ae"/>
<rect x="300" y="140" width="20" height="20" fill="#822045"/>
<rect x="0" y="160" width="20" height="20" fill="#822020"/>
<rect x="20" y="160" width="20" height="20" fill="#d17b47"/>
<rect x="40" y="160" width="20" height="20" fill="#826a20"/>
<rect x="60" y="160" width="20" height="20" fill="#bfd147"/>
<rect x="80" y="160" width="20" height="20" fill="#518220"/>
<rect x="100" y="160" width="20" height="20" fill="#58d147"/>
<rect x="120" y="160" width="20" height="20" fill="#208239"/>
<rect x="140" y="160" width="20" height="20" fill="#47d19d"/>
<rect x="160" y="160" width="20" height="20" fill="#208282"/>
<rect x="180" y="160" width="20" height="20" fill="#479dd1"/>
<rect x="200" y="160" width="20" height="20" fill="#203982"/>
<rect x="220" y="160" width="20" height="20" fill="#5847d1"/>
<rect x="240" y="160" width="20" height="20" fill="#512082"/>
<rect x="260" y="160" width="20" height="20" fill="#bf47d1"/>
<rect x="280" y="160" width="20" height="20" fill="#82206a"/>
<rect x="300" y="160" width="20" height="20" fill="#d1477b"/>
</svg>
